<svg width="20" height="21" viewBox="0 0 20 21" fill="none" xmlns="http://www.w3.org/2000/svg">
<path id="Union" fill-rule="evenodd" clip-rule="evenodd" d="M19.3688 0.977145C18.7326 0.340952 17.7011 0.340951 17.0649 0.977144L9.92303 8.11902L2.9353 1.13127C2.29911 0.49508 1.26764 0.495079 0.631445 1.13127C-0.00474647 1.76747 -0.00474759 2.79894 0.631444 3.43513L7.61918 10.4229L0.477144 17.5649C-0.159048 18.2011 -0.159048 19.2326 0.477144 19.8688C1.11334 20.505 2.14481 20.505 2.781 19.8688L9.92303 12.7267L17.2192 20.0229C17.8554 20.6591 18.8869 20.6591 19.5231 20.0229C20.1592 19.3867 20.1592 18.3552 19.5231 17.7191L12.2269 10.4229L19.3687 3.281C20.0049 2.64481 20.0049 1.61334 19.3688 0.977145Z" fill="#B6C0D5"/>
</svg>
